<svg width="148" height="148" viewBox="0 0 148 148" fill="none" xmlns="http://www.w3.org/2000/svg">
<circle cx="74" cy="74" r="74" fill="#BDBDBD"/>
<path fill-rule="evenodd" clip-rule="evenodd" d="M64.0794 61.167C64.0794 55.368 68.7804 50.667 74.5794 50.667C80.3784 50.667 85.0794 55.368 85.0794 61.167C85.0794 66.966 80.3784 71.667 74.5794 71.667C68.7804 71.667 64.0794 66.966 64.0794 61.167Z" fill="#F2F2F2"/>
<path fill-rule="evenodd" clip-rule="evenodd" d="M55.3323 94.0794C55.5128 83.6033 64.0607 75.167 74.5794 75.167C85.0983 75.167 93.6464 83.6037 93.8265 94.0802C93.8384 94.775 93.4382 95.411 92.8066 95.7008C87.2557 98.2479 81.0813 99.667 74.5801 99.667C68.0784 99.667 61.9034 98.2476 56.3521 95.7001C55.7206 95.4103 55.3203 94.7742 55.3323 94.0794Z" fill="#F2F2F2"/>
</svg>
