<svg width="538" height="465" viewBox="0 0 538 465" fill="none" xmlns="http://www.w3.org/2000/svg">
<path d="M420.129 331.621C420.129 331.621 443.049 333.891 454.659 348.101C454.659 348.101 466.939 331.641 488.979 331.981C494.365 325.483 497.794 317.589 498.868 309.217C499.942 300.846 498.615 292.342 495.043 284.695C491.471 277.048 485.8 270.573 478.691 266.024C471.582 261.476 463.327 259.04 454.887 259C446.447 258.961 438.17 261.32 431.019 265.803C423.867 270.286 418.137 276.707 414.494 284.321C410.851 291.934 409.445 300.425 410.441 308.806C411.437 317.187 414.793 325.113 420.119 331.661L420.129 331.621Z" fill="#FFD1C3"/>
<path opacity="0.5" d="M420.129 331.621C420.129 331.621 443.049 333.891 454.659 348.101C454.659 348.101 466.939 331.641 488.979 331.981C494.365 325.483 497.794 317.589 498.868 309.217C499.942 300.846 498.615 292.342 495.043 284.695C491.471 277.048 485.8 270.573 478.691 266.024C471.582 261.476 463.327 259.04 454.887 259C446.447 258.961 438.17 261.32 431.019 265.803C423.867 270.286 418.137 276.707 414.494 284.321C410.851 291.934 409.445 300.425 410.441 308.806C411.437 317.187 414.793 325.113 420.119 331.661L420.129 331.621Z" fill="white"/>
<path d="M453.889 262.141L453.119 410.681H456.989L453.889 262.141Z" fill="#B8B8B8"/>
<path d="M455.059 343.771C455.059 343.771 462.789 329.841 476.719 325.581C476.719 325.581 462.019 329.071 454.719 341.061L455.059 343.771Z" fill="#B8B8B8"/>
<path d="M455.059 304.311C455.059 304.311 462.789 290.381 476.719 286.121C476.719 286.121 462.019 289.601 454.719 301.601L455.059 304.311Z" fill="#B8B8B8"/>
<path d="M455.059 324.021C455.059 324.021 462.789 310.091 476.719 305.831C476.719 305.831 462.019 309.321 454.719 321.311L455.059 324.021Z" fill="#B8B8B8"/>
<path d="M453.909 314.361C453.909 314.361 446.439 300.441 432.999 296.181C432.999 296.181 447.189 299.661 454.279 311.661L453.909 314.361Z" fill="#B8B8B8"/>
<path d="M453.909 333.711C453.909 333.711 446.439 319.781 432.999 315.531C432.999 315.531 447.189 319.011 454.279 331.001L453.909 333.711Z" fill="#B8B8B8"/>
<path d="M44.9987 331.621C44.9987 331.621 67.9187 333.891 79.5287 348.101C79.5287 348.101 91.8086 331.641 113.849 331.981C119.235 325.483 122.664 317.589 123.738 309.217C124.812 300.846 123.485 292.342 119.913 284.695C116.341 277.048 110.67 270.573 103.561 266.024C96.452 261.476 88.1969 259.04 79.7571 259C71.3172 258.961 63.0398 261.32 55.8886 265.803C48.7375 270.286 43.0068 276.707 39.3638 284.321C35.7208 291.934 34.3154 300.425 35.3112 308.806C36.307 317.187 39.6631 325.113 44.9887 331.661L44.9987 331.621Z" fill="#FFD1C3"/>
<path opacity="0.5" d="M44.9987 331.621C44.9987 331.621 67.9187 333.891 79.5287 348.101C79.5287 348.101 91.8086 331.641 113.849 331.981C119.235 325.483 122.664 317.589 123.738 309.217C124.812 300.846 123.485 292.342 119.913 284.695C116.341 277.048 110.67 270.573 103.561 266.024C96.452 261.476 88.1969 259.04 79.7571 259C71.3172 258.961 63.0398 261.32 55.8886 265.803C48.7375 270.286 43.0068 276.707 39.3638 284.321C35.7208 291.934 34.3154 300.425 35.3112 308.806C36.307 317.187 39.6631 325.113 44.9887 331.661L44.9987 331.621Z" fill="white"/>
<path d="M78.7787 262.141L77.9987 410.681H81.8687L78.7787 262.141Z" fill="#B8B8B8"/>
<path d="M79.9386 343.771C79.9386 343.771 87.6686 329.841 101.599 325.581C101.599 325.581 86.8986 329.071 79.5986 341.061L79.9386 343.771Z" fill="#B8B8B8"/>
<path d="M79.9386 304.311C79.9386 304.311 87.6686 290.381 101.599 286.121C101.599 286.121 86.8986 289.601 79.5986 301.601L79.9386 304.311Z" fill="#B8B8B8"/>
<path d="M79.9386 324.021C79.9386 324.021 87.6686 310.091 101.599 305.831C101.599 305.831 86.8986 309.321 79.5986 321.311L79.9386 324.021Z" fill="#B8B8B8"/>
<path d="M78.7887 314.361C78.7887 314.361 71.3187 300.441 57.8787 296.181C57.8787 296.181 72.0687 299.661 79.1587 311.661L78.7887 314.361Z" fill="#B8B8B8"/>
<path d="M78.7887 333.711C78.7887 333.711 71.3187 319.781 57.8787 315.531C57.8787 315.531 72.0687 319.011 79.1587 331.001L78.7887 333.711Z" fill="#B8B8B8"/>
<path d="M326.999 346.021C326.999 346.021 345.759 347.871 355.259 359.501C355.259 359.501 365.309 346.031 383.349 346.301C387.755 340.982 390.56 334.521 391.436 327.669C392.313 320.818 391.226 313.859 388.301 307.602C385.376 301.345 380.734 296.047 374.915 292.326C369.096 288.604 362.34 286.612 355.433 286.582C348.526 286.551 341.753 288.483 335.901 292.153C330.049 295.822 325.36 301.078 322.38 307.309C319.4 313.54 318.251 320.49 319.067 327.348C319.882 334.207 322.63 340.693 326.989 346.051L326.999 346.021Z" fill="#FFD1C3"/>
<path opacity="0.5" d="M326.999 346.021C326.999 346.021 345.759 347.871 355.259 359.501C355.259 359.501 365.309 346.031 383.349 346.301C387.755 340.982 390.56 334.521 391.436 327.669C392.313 320.818 391.226 313.859 388.301 307.602C385.376 301.345 380.734 296.047 374.915 292.326C369.096 288.604 362.34 286.612 355.433 286.582C348.526 286.551 341.753 288.483 335.901 292.153C330.049 295.822 325.36 301.078 322.38 307.309C319.4 313.54 318.251 320.49 319.067 327.348C319.882 334.207 322.63 340.693 326.989 346.051L326.999 346.021Z" fill="white"/>
<path d="M354.639 289.101L354.009 410.681H357.179L354.639 289.101Z" fill="#B8B8B8"/>
<path d="M355.589 355.921C355.589 355.921 361.929 344.521 373.319 341.031C373.319 341.031 361.319 343.881 355.319 353.701L355.589 355.921Z" fill="#B8B8B8"/>
<path d="M355.589 323.621C355.589 323.621 361.929 312.221 373.319 308.741C373.319 308.741 361.319 311.591 355.319 321.401L355.589 323.621Z" fill="#B8B8B8"/>
<path d="M355.589 339.771C355.589 339.771 361.929 328.371 373.319 324.881C373.319 324.881 361.319 327.731 355.319 337.551L355.589 339.771Z" fill="#B8B8B8"/>
<path d="M354.649 331.851C354.649 331.851 348.539 320.451 337.539 316.971C337.539 316.971 349.149 319.821 354.959 329.631L354.649 331.851Z" fill="#B8B8B8"/>
<path d="M354.649 347.681C354.649 347.681 348.539 336.281 337.539 332.801C337.539 332.801 349.149 335.651 354.959 345.471L354.649 347.681Z" fill="#B8B8B8"/>
<path d="M145.489 346.021C145.489 346.021 164.249 347.871 173.749 359.501C173.749 359.501 183.749 346.031 201.839 346.301C206.245 340.982 209.05 334.521 209.926 327.669C210.803 320.818 209.716 313.859 206.791 307.602C203.866 301.345 199.224 296.047 193.405 292.326C187.586 288.604 180.83 286.612 173.923 286.582C167.016 286.551 160.242 288.483 154.391 292.153C148.539 295.822 143.85 301.078 140.87 307.309C137.89 313.54 136.741 320.49 137.557 327.348C138.372 334.207 141.12 340.693 145.479 346.051L145.489 346.021Z" fill="#FFD1C3"/>
<path opacity="0.5" d="M145.489 346.021C145.489 346.021 164.249 347.871 173.749 359.501C173.749 359.501 183.749 346.031 201.839 346.301C206.245 340.982 209.05 334.521 209.926 327.669C210.803 320.818 209.716 313.859 206.791 307.602C203.866 301.345 199.224 296.047 193.405 292.326C187.586 288.604 180.83 286.612 173.923 286.582C167.016 286.551 160.242 288.483 154.391 292.153C148.539 295.822 143.85 301.078 140.87 307.309C137.89 313.54 136.741 320.49 137.557 327.348C138.372 334.207 141.12 340.693 145.479 346.051L145.489 346.021Z" fill="white"/>
<path d="M173.129 289.101L172.499 410.681H175.669L173.129 289.101Z" fill="#B8B8B8"/>
<path d="M174.129 355.921C174.129 355.921 180.469 344.521 191.859 341.031C191.859 341.031 179.859 343.881 173.859 353.701L174.129 355.921Z" fill="#B8B8B8"/>
<path d="M174.129 323.621C174.129 323.621 180.469 312.221 191.859 308.741C191.859 308.741 179.859 311.591 173.859 321.401L174.129 323.621Z" fill="#B8B8B8"/>
<path d="M174.129 339.771C174.129 339.771 180.469 328.371 191.859 324.881C191.859 324.881 179.859 327.731 173.859 337.551L174.129 339.771Z" fill="#B8B8B8"/>
<path d="M173.129 331.851C173.129 331.851 167.029 320.451 156.029 317.021C156.029 317.021 167.639 319.871 173.449 329.681L173.129 331.851Z" fill="#B8B8B8"/>
<path d="M173.129 347.681C173.129 347.681 167.019 336.281 156.019 332.801C156.019 332.801 167.629 335.651 173.439 345.471L173.129 347.681Z" fill="#B8B8B8"/>
<path d="M51.8987 411.211H483.439" stroke="#263238" stroke-width="1.04742" stroke-miterlimit="10"/>
<path opacity="0.3" d="M169.719 459.471C169.719 462.471 151.289 464.861 128.539 464.861C105.789 464.861 87.3586 462.451 87.3586 459.471C87.3586 456.491 105.799 454.081 128.539 454.081C151.279 454.081 169.719 456.501 169.719 459.471Z" fill="black"/>
<path opacity="0.3" d="M255.929 459.471C255.929 462.471 237.489 464.861 214.749 464.861C192.009 464.861 173.569 462.451 173.569 459.471C173.569 456.491 192.009 454.081 214.749 454.081C237.489 454.081 255.929 456.501 255.929 459.471Z" fill="black"/>
<path opacity="0.3" d="M370.129 459.471C370.129 462.471 351.699 464.861 328.959 464.861C306.219 464.861 287.779 462.451 287.779 459.471C287.779 456.491 306.209 454.081 328.959 454.081C351.709 454.081 370.129 456.501 370.129 459.471Z" fill="black"/>
<path opacity="0.3" d="M465.529 459.471C465.529 462.471 447.089 464.861 424.349 464.861C401.609 464.861 383.129 462.451 383.129 459.471C383.129 456.491 401.569 454.081 424.309 454.081C447.049 454.081 465.529 456.501 465.529 459.471Z" fill="black"/>
<path d="M333.409 301.791C333.409 301.791 331.719 308.791 331.719 309.971C331.718 310.701 331.637 311.428 331.479 312.141C331.479 312.141 327.869 316.471 328.349 317.671C328.932 318.604 329.768 319.353 330.759 319.831C330.759 319.831 332.679 326.831 334.609 327.291C336.591 327.661 338.595 327.902 340.609 328.011L341.329 333.781L350.949 332.341L348.549 323.681L349.549 316.221C349.549 316.221 351.229 313.101 349.549 308.051C347.869 303.001 344.259 302.761 341.849 302.761C339.021 302.582 336.204 302.258 333.409 301.791Z" fill="white" stroke="#263238" stroke-width="1.04742" stroke-linecap="round" stroke-linejoin="round"/>
<path d="M337.739 298.191C337.739 298.191 329.319 297.941 329.559 300.111C329.799 302.281 338.459 305.111 338.459 305.111C338.459 305.111 335.569 307.031 337.009 308.961C338.449 310.891 341.819 312.571 341.819 312.571C341.819 312.571 340.819 316.661 342.309 316.901C343.799 317.141 344.709 314.971 344.949 314.251C345.189 313.531 347.839 313.771 348.559 315.691C348.966 316.689 349.209 317.745 349.279 318.821C349.279 318.821 352.169 310.161 352.649 306.311C353.129 302.461 342.309 298.191 337.739 298.191Z" fill="#263238" stroke="#263238" stroke-width="1.04742" stroke-linecap="round" stroke-linejoin="round"/>
<path d="M343.069 317.021C343.069 317.021 345.979 310.621 347.719 313.771C349.459 316.921 348.719 320.201 347.009 320.551C345.299 320.901 343.869 321.241 343.869 321.241" fill="white"/>
<path d="M343.069 317.021C343.069 317.021 345.979 310.621 347.719 313.771C349.459 316.921 348.719 320.201 347.009 320.551C345.299 320.901 343.869 321.241 343.869 321.241" stroke="#263238" stroke-width="1.04742" stroke-linecap="round" stroke-linejoin="round"/>
<path d="M331.239 383.811C330.769 384.361 323.059 400.891 322.099 406.421C321.139 411.951 314.889 444.911 314.639 446.351C314.389 447.791 301.179 450.681 300.209 450.921C299.239 451.161 301.209 453.811 304.059 454.531C306.909 455.251 315.129 458.621 317.059 456.691C318.989 454.761 321.629 443.941 322.349 442.741C323.069 441.541 336.609 409.641 336.609 409.641C336.609 409.641 343.549 394.331 344.989 392.881C346.429 391.431 343.279 385.021 342.069 383.091C340.859 381.161 334.609 379.961 331.239 383.811Z" fill="#263238" stroke="#263238" stroke-width="1.04742" stroke-linecap="round" stroke-linejoin="round"/>
<path d="M329.799 384.021C329.799 384.021 333.169 400.141 334.849 405.911C336.421 410.757 338.787 415.309 341.849 419.381C343.779 422.031 353.159 445.381 353.159 445.381L354.599 448.991C354.599 448.991 354.119 450.431 351.479 452.351C348.839 454.271 341.369 457.401 343.299 458.131C345.229 458.861 352.919 458.851 356.529 458.611C359.637 458.391 362.55 457.017 364.699 454.761C366.149 453.071 362.299 448.261 362.299 447.301C362.299 446.341 353.879 417.001 353.399 415.551C352.919 414.101 350.509 403.771 350.509 403.771V392.021C350.509 392.021 351.719 389.861 351.719 385.021C351.719 380.181 348.109 379.241 348.109 379.241L328.379 381.171L329.799 384.021Z" fill="#263238" stroke="#263238" stroke-width="1.04742" stroke-linecap="round" stroke-linejoin="round"/>
<path d="M328.129 382.611C328.129 382.611 328.619 386.701 330.059 386.941C331.499 387.181 346.409 391.271 352.909 386.461C352.909 386.461 354.109 382.851 353.389 381.891C352.669 380.931 350.979 381.411 342.329 381.411C333.679 381.411 328.129 381.411 328.129 382.611Z" fill="#EE683E" stroke="#263238" stroke-width="1.04742" stroke-linecap="round" stroke-linejoin="round"/>
<path d="M350.239 328.731C350.239 328.731 341.339 329.931 337.489 333.731C333.639 337.531 330.279 344.561 328.599 351.051C326.919 357.541 325.709 381.361 328.109 382.561C330.509 383.761 350.719 384.971 354.109 383.561C357.499 382.151 353.869 370.811 353.869 366.481C353.869 362.151 357.719 347.481 356.999 339.311C356.279 331.141 350.239 328.731 350.239 328.731Z" fill="#EE683E" stroke="#263238" stroke-width="1.04742" stroke-linecap="round" stroke-linejoin="round"/>
<path d="M318.129 353.731C318.019 343.831 313.979 335.381 308.609 331.731V329.731L293.809 329.881C285.479 329.971 278.809 340.881 278.979 354.181C279.149 367.481 285.979 378.251 294.319 378.181L309.119 378.031V376.031C314.319 372.161 318.179 363.631 318.129 353.731Z" fill="#263238" stroke="#263238" stroke-width="1.04742" stroke-linecap="round" stroke-linejoin="round"/>
<path d="M324.769 353.661C324.659 343.261 320.649 334.381 315.009 330.521V328.391L308.669 328.461C299.909 328.551 292.939 339.981 293.089 353.991C293.239 368.001 300.449 379.281 309.209 379.191L315.549 379.121V377.001C321.059 373.021 324.879 364.021 324.769 353.661Z" fill="white" stroke="#263238" stroke-width="1.04742" stroke-linecap="round" stroke-linejoin="round"/>
<path d="M331.129 353.591C331.279 367.591 324.299 379.031 315.549 379.121C306.799 379.211 299.549 367.931 299.429 353.931C299.309 339.931 306.259 328.491 315.009 328.391C323.759 328.291 330.959 339.581 331.129 353.591Z" fill="#737373" stroke="#263238" stroke-width="1.04742" stroke-linecap="round" stroke-linejoin="round"/>
<path d="M327.489 353.161C327.559 359.791 324.249 365.211 320.099 365.261C315.949 365.311 312.529 359.951 312.459 353.261C312.389 346.571 315.699 341.261 319.849 341.161C323.999 341.061 327.419 346.521 327.489 353.161Z" fill="#263238" stroke="#263238" stroke-width="1.04742" stroke-linecap="round" stroke-linejoin="round"/>
<path d="M445.329 403.021C446.154 396.857 446.505 390.639 446.379 384.421C443.129 385.921 424.169 386.471 422.429 386.511C420.689 386.551 401.729 385.921 398.479 384.421C398.336 390.637 398.67 396.856 399.479 403.021C400.789 411.131 412.309 443.601 412.569 445.171C412.906 446.685 413.344 448.175 413.879 449.631C413.879 449.631 407.329 454.341 404.449 456.171C401.569 458.001 403.669 458.791 406.549 458.791C409.429 458.791 415.449 458.001 417.279 458.001C418.899 458.001 421.719 456.591 422.379 456.251C423.039 456.591 425.859 458.001 427.469 458.001C429.309 458.001 435.329 458.791 438.209 458.791C441.089 458.791 443.209 458.001 440.309 456.171C437.409 454.341 430.879 449.631 430.879 449.631C431.414 448.175 431.852 446.685 432.189 445.171C432.499 443.571 444.019 411.101 445.329 403.021Z" fill="#263238" stroke="#263238" stroke-width="1.04742" stroke-linecap="round" stroke-linejoin="round"/>
<path d="M418.469 333.511C418.469 333.511 408.339 336.821 403.109 340.141C397.879 343.461 392.629 361.441 392.629 362.141C392.328 363.394 391.92 364.618 391.409 365.801C391.409 365.801 386.169 364.581 385.129 368.941C384.089 373.301 390.359 378.891 393.679 379.071C396.999 379.251 398.039 378.201 398.039 378.201C398.039 378.201 395.949 382.391 396.819 384.131C397.689 385.871 405.029 392.341 419.519 392.131C434.009 391.921 444.519 389.511 446.049 387.421C447.579 385.331 447.799 380.961 447.799 380.961C447.799 380.961 453.209 379.561 455.129 376.071C457.049 372.581 456.699 368.911 455.649 365.251C454.599 361.591 449.189 350.961 445.529 345.021C441.869 339.081 434.179 335.771 430.529 334.721C426.879 333.671 420.909 333.511 418.469 333.511Z" fill="#EE683E" stroke="#263238" stroke-width="1.04742" stroke-linecap="round" stroke-linejoin="round"/>
<path d="M421.539 348.211C422.989 347.731 427.539 343.691 429.289 339.651C429.981 338.104 430.468 336.474 430.739 334.801L430.509 334.731C426.849 333.681 420.909 333.511 418.509 333.511C418.509 333.511 416.389 334.201 413.589 335.271C413.606 337.432 414.012 339.573 414.789 341.591C416.369 345.631 420.129 348.701 421.539 348.211Z" fill="white" stroke="#263238" stroke-width="1.04742" stroke-linecap="round" stroke-linejoin="round"/>
<path d="M438.189 356.371C438.189 356.371 442.379 378.721 447.129 381.021" stroke="#263238" stroke-width="1.04742" stroke-linecap="round" stroke-linejoin="round"/>
<path d="M398.039 378.201C398.039 378.201 403.279 358.471 403.629 356.551" stroke="#263238" stroke-width="1.04742" stroke-linecap="round" stroke-linejoin="round"/>
<path d="M444.959 366.471C444.959 366.471 442.059 367.121 442.059 369.221" stroke="#263238" stroke-width="1.04742" stroke-linecap="round" stroke-linejoin="round"/>
<path d="M395.689 366.791C395.689 366.791 398.919 368.891 398.599 372.121" stroke="#263238" stroke-width="1.04742" stroke-linecap="round" stroke-linejoin="round"/>
<path d="M417.329 458.021C418.949 458.021 421.769 456.611 422.429 456.271C423.089 456.611 425.909 458.021 427.519 458.021C429.359 458.021 435.379 458.811 438.259 458.811C441.139 458.811 443.259 458.021 440.359 456.191C437.849 454.601 432.589 450.841 431.249 449.881C428.159 452.701 422.049 452.001 422.049 452.001C420.811 451.814 419.585 451.554 418.379 451.221C416.549 450.691 413.929 449.651 413.929 449.651C413.929 449.651 407.379 454.361 404.499 456.191C401.619 458.021 403.719 458.811 406.599 458.811C409.479 458.811 415.499 458.021 417.329 458.021Z" fill="#EE683E" stroke="#263238" stroke-width="1.04742" stroke-linecap="round" stroke-linejoin="round"/>
<path d="M422.049 449.691V404.031" stroke="white" stroke-width="1.04742" stroke-linecap="round" stroke-linejoin="round"/>
<path d="M422.429 456.221L422.049 451.951V449.691" stroke="#263238" stroke-width="1.04742" stroke-linecap="round" stroke-linejoin="round"/>
<path d="M418.379 402.461H425.969" stroke="white" stroke-width="1.04742" stroke-linecap="round" stroke-linejoin="round"/>
<path d="M408.459 307.311C408.459 307.311 403.019 310.571 403.829 313.431C404.639 316.291 407.099 316.841 406.559 318.431C406.019 320.021 404.129 321.021 406.279 322.021C407.503 322.569 408.784 322.982 410.099 323.251C410.099 323.251 412.099 330.191 415.539 331.411C418.979 332.631 424.939 331.821 429.159 331.281C430.584 331.141 431.933 330.571 433.027 329.646C434.12 328.72 434.906 327.484 435.279 326.101C435.689 324.611 433.509 326.381 432.419 324.741C431.329 323.101 432.969 318.891 434.189 315.211C435.409 311.531 431.739 304.591 426.979 302.281C422.219 299.971 413.129 301.181 408.459 307.311Z" fill="#263238" stroke="#263238" stroke-width="1.04742" stroke-linecap="round" stroke-linejoin="round"/>
<path d="M417.599 331.021C416.907 333.303 416.438 335.648 416.199 338.021C416.019 341.021 418.469 344.311 421.089 344.131C423.709 343.951 425.969 338.721 426.319 336.131C426.669 333.541 425.449 326.531 425.449 326.531C425.449 326.531 421.449 326.711 419.859 328.101C418.925 328.92 418.158 329.911 417.599 331.021Z" fill="white" stroke="#263238" stroke-width="1.04742" stroke-linecap="round" stroke-linejoin="round"/>
<path d="M414.049 311.121C414.049 311.121 414.179 315.201 418.269 319.121C420.727 321.498 423.643 323.352 426.839 324.571C426.767 325.464 426.537 326.338 426.159 327.151C425.981 327.491 425.704 327.768 425.364 327.947C425.025 328.125 424.639 328.197 424.259 328.151H422.889C422.889 328.151 420.889 332.841 418.469 333.521C416.049 334.201 410.099 333.731 409.279 327.741C408.459 321.751 408.329 316.851 409.009 315.621C409.689 314.391 414.049 311.121 414.049 311.121Z" fill="white" stroke="#263238" stroke-width="1.04742" stroke-linecap="round" stroke-linejoin="round"/>
<path d="M456.839 363.821C457.459 362.57 457.836 361.212 457.949 359.821C457.949 358.001 454.569 355.391 453.949 354.741C453.329 354.091 452.709 354.161 452.579 355.071C452.577 355.582 452.68 356.087 452.881 356.557C453.082 357.026 453.377 357.45 453.749 357.801C454.255 358.2 454.623 358.75 454.799 359.371C454.859 359.821 453.679 362.031 454.269 363.461C454.859 364.891 456.519 365.321 456.839 363.821Z" fill="white" stroke="#263238" stroke-width="1.04742" stroke-linecap="round" stroke-linejoin="round"/>
<path d="M321.409 353.611C321.409 353.611 336.129 358.321 344.979 369.321C353.829 380.321 359.639 378.741 370.639 375.081C381.639 371.421 385.829 358.321 401.019 369.321C416.209 380.321 419.349 384.501 431.919 378.221C444.489 371.941 451.289 356.751 462.819 361.981C474.349 367.211 469.099 393.981 470.149 406.981C471.199 419.981 469.619 452.551 472.239 456.741C474.859 460.931 501.569 457.741 501.569 457.741" stroke="#263238" stroke-width="3.14226" stroke-linecap="round" stroke-linejoin="round"/>
<path d="M348.979 336.131C348.979 336.131 346.049 331.351 341.729 332.601C337.159 333.921 334.799 340.451 333.729 344.521C332.659 348.591 331.939 352.991 329.979 356.781C329.979 356.781 321.319 356.631 316.489 355.231C312.803 354.082 309.179 352.747 305.629 351.231C305.629 351.231 303.919 348.841 302.709 348.371C301.499 347.901 298.359 346.981 298.129 347.701C297.899 348.421 301.769 350.791 301.769 350.791C301.769 350.791 294.569 351.791 293.849 352.561C293.129 353.331 298.939 355.631 298.939 355.631C298.939 355.631 301.109 356.331 306.389 355.071C306.389 355.071 325.759 367.371 329.619 368.781C333.479 370.191 335.619 370.641 338.249 365.561C340.879 360.481 349.609 347.881 350.999 342.811" fill="#EE683E"/>
<path d="M348.979 336.131C348.979 336.131 346.049 331.351 341.729 332.601C337.159 333.921 334.799 340.451 333.729 344.521C332.659 348.591 331.939 352.991 329.979 356.781C329.979 356.781 321.319 356.631 316.489 355.231C312.803 354.082 309.179 352.747 305.629 351.231C305.629 351.231 303.919 348.841 302.709 348.371C301.499 347.901 298.359 346.981 298.129 347.701C297.899 348.421 301.769 350.791 301.769 350.791C301.769 350.791 294.569 351.791 293.849 352.561C293.129 353.331 298.939 355.631 298.939 355.631C298.939 355.631 301.109 356.331 306.389 355.071C306.389 355.071 325.759 367.371 329.619 368.781C333.479 370.191 335.619 370.641 338.249 365.561C340.879 360.481 349.609 347.881 350.999 342.811" stroke="#263238" stroke-width="1.04742" stroke-linecap="round" stroke-linejoin="round"/>
<path d="M310.659 353.271C307.829 352.211 305.659 351.271 305.659 351.271C305.659 351.271 303.949 348.881 302.739 348.411C301.529 347.941 298.389 347.021 298.159 347.741C297.929 348.461 301.799 350.831 301.799 350.831C301.799 350.831 294.599 351.831 293.879 352.601C293.159 353.371 298.969 355.671 298.969 355.671C298.969 355.671 301.139 356.371 306.419 355.111L309.129 356.821L310.659 353.271Z" fill="white" stroke="#263238" stroke-width="1.04742" stroke-linecap="round" stroke-linejoin="round"/>
<path d="M385.319 365.661C384.698 364.41 384.321 363.052 384.209 361.661C384.209 359.841 387.599 357.241 388.209 356.591C388.819 355.941 389.439 356.011 389.569 356.921C389.57 357.432 389.467 357.937 389.266 358.407C389.065 358.876 388.77 359.3 388.399 359.651C387.892 360.05 387.524 360.6 387.349 361.221C387.289 361.661 388.469 363.881 387.879 365.311C387.289 366.741 385.639 367.151 385.319 365.661Z" fill="white" stroke="#263238" stroke-width="1.04742" stroke-linecap="round" stroke-linejoin="round"/>
<path d="M387.649 360.171C387.649 360.171 384.859 365.321 386.479 367.171C388.099 369.021 389.669 363.011 389.969 361.351C390.269 359.691 388.679 358.021 387.649 360.171Z" fill="white" stroke="#263238" stroke-width="1.04742" stroke-linecap="round" stroke-linejoin="round"/>
<path d="M389.949 362.021C389.949 362.021 387.159 367.171 388.779 369.021C390.399 370.871 391.969 364.861 392.269 363.201C392.569 361.541 390.979 359.811 389.949 362.021Z" fill="white" stroke="#263238" stroke-width="1.04742" stroke-linecap="round" stroke-linejoin="round"/>
<path d="M392.479 362.451C392.479 362.451 389.689 367.601 391.309 369.451C392.929 371.301 394.499 365.291 394.799 363.631C395.099 361.971 393.509 360.291 392.479 362.451Z" fill="white" stroke="#263238" stroke-width="1.04742" stroke-linecap="round" stroke-linejoin="round"/>
<path d="M395.719 362.491C395.719 362.491 393.119 366.491 394.539 368.001C395.959 369.511 397.489 364.761 397.789 363.391C398.089 362.021 396.679 360.691 395.719 362.491Z" fill="white" stroke="#263238" stroke-width="1.04742" stroke-linecap="round" stroke-linejoin="round"/>
<path d="M454.979 360.371C454.979 360.371 457.769 365.521 456.149 367.371C454.529 369.221 452.959 363.201 452.659 361.541C452.359 359.881 453.949 358.211 454.979 360.371Z" fill="white" stroke="#263238" stroke-width="1.04742" stroke-linecap="round" stroke-linejoin="round"/>
<path d="M452.679 362.171C452.679 362.171 455.469 367.321 453.849 369.171C452.229 371.021 450.659 365.001 450.359 363.341C450.059 361.681 451.649 360.021 452.679 362.171Z" fill="white" stroke="#263238" stroke-width="1.04742" stroke-linecap="round" stroke-linejoin="round"/>
<path d="M450.129 362.651C450.129 362.651 452.919 367.801 451.299 369.651C449.679 371.501 448.109 365.491 447.819 363.821C447.529 362.151 449.129 360.491 450.129 362.651Z" fill="white" stroke="#263238" stroke-width="1.04742" stroke-linecap="round" stroke-linejoin="round"/>
<path d="M446.909 362.691C446.909 362.691 449.509 366.741 448.089 368.201C446.669 369.661 445.139 364.961 444.849 363.591C444.559 362.221 445.949 360.891 446.909 362.691Z" fill="white" stroke="#263238" stroke-width="1.04742" stroke-linecap="round" stroke-linejoin="round"/>
<path d="M102.849 419.671V425.351C100.878 427.505 99.4601 430.107 98.7187 432.931C97.5087 437.571 93.7187 457.541 94.7187 458.061C95.7187 458.581 105.129 460.731 108.129 460.281C111.569 459.761 114.499 459.941 112.769 458.041C111.039 456.141 101.949 450.831 101.949 450.831C101.949 450.831 111.949 436.371 114.169 431.031C116.389 425.691 116.749 417.431 116.749 417.431L103.329 416.921L102.849 419.671Z" fill="white" stroke="#263238" stroke-width="1.04742" stroke-linecap="round" stroke-linejoin="round"/>
<path d="M108.129 460.281C111.569 459.761 114.499 459.941 112.769 458.041C111.039 456.141 101.949 450.831 101.949 450.831L101.609 452.891L95.0586 452.091C94.5786 455.431 94.3686 457.881 94.7186 458.091C95.7886 458.571 105.129 460.731 108.129 460.281Z" fill="#263238" stroke="#263238" stroke-width="1.04742" stroke-linecap="round" stroke-linejoin="round"/>
<path d="M135.729 422.611L137.279 425.371C136.636 426.61 136.258 427.968 136.169 429.361C136.079 430.754 136.28 432.15 136.759 433.461C138.309 438.281 141.929 456.011 141.929 457.041C141.929 458.071 144.159 458.761 145.929 458.761C147.699 458.761 152.599 459.101 153.289 459.101C153.979 459.101 158.969 459.961 160.689 458.931C162.409 457.901 158.499 455.831 155.919 454.631C153.339 453.431 147.659 450.331 147.659 450.331C147.659 450.331 149.029 436.211 149.029 430.011C149.029 423.811 150.409 421.751 148.519 417.961C146.629 414.171 134.749 419.691 134.749 419.691L135.729 422.611Z" fill="white" stroke="#263238" stroke-width="1.04742" stroke-linecap="round" stroke-linejoin="round"/>
<path d="M155.869 454.631C153.289 453.421 147.609 450.331 147.609 450.331L146.919 452.911L141.389 453.911C141.719 455.631 141.929 456.811 141.929 457.051C141.929 458.051 144.159 458.771 145.929 458.771C147.699 458.771 152.599 459.111 153.289 459.111C153.979 459.111 158.969 459.971 160.689 458.941C162.409 457.911 158.449 455.831 155.869 454.631Z" fill="#263238" stroke="#263238" stroke-width="1.04742" stroke-linecap="round" stroke-linejoin="round"/>
<path d="M126.459 308.021C125.109 305.715 123.567 303.527 121.849 301.481C119.479 298.811 112.049 298.961 108.789 302.481C105.529 306.001 106.559 312.281 107.789 314.061C109.019 315.841 111.499 324.161 111.499 324.161L112.089 330.101L125.899 335.001L123.079 325.351C123.079 325.351 128.429 324.351 128.869 322.681C129.309 321.011 127.979 315.401 127.979 315.401C127.979 315.401 129.759 314.211 129.609 313.171C129.459 312.131 126.459 308.021 126.459 308.021Z" fill="white" stroke="#263238" stroke-width="1.04742" stroke-linecap="round" stroke-linejoin="round"/>
<path d="M110.569 314.421C110.569 314.421 112.929 316.421 114.219 314.131C115.509 311.841 116.489 309.601 116.489 307.661C116.489 305.721 111.639 304.111 114.869 302.811C118.099 301.511 120.429 304.401 121.869 301.501C123.309 298.601 121.999 298.291 114.239 298.291C106.479 298.291 102.599 302.171 104.239 307.021C105.55 310.602 107.173 314.062 109.089 317.361L110.569 314.421Z" fill="#263238" stroke="#263238" stroke-width="1.04742" stroke-linecap="round" stroke-linejoin="round"/>
<path d="M126.899 311.451C126.899 312.185 126.681 312.902 126.273 313.512C125.866 314.122 125.286 314.598 124.608 314.878C123.93 315.159 123.185 315.233 122.465 315.089C121.745 314.946 121.084 314.593 120.565 314.074C120.046 313.555 119.693 312.894 119.55 312.175C119.407 311.455 119.48 310.709 119.761 310.031C120.042 309.353 120.517 308.774 121.127 308.366C121.738 307.958 122.455 307.741 123.189 307.741C124.173 307.741 125.116 308.132 125.812 308.827C126.508 309.523 126.899 310.467 126.899 311.451V311.451Z" stroke="#263238" stroke-width="1.04742" stroke-linecap="round" stroke-linejoin="round"/>
<path d="M126.359 308.161C126.79 307.984 127.252 307.892 127.719 307.891C128.491 307.892 129.241 308.15 129.852 308.623C130.462 309.097 130.898 309.76 131.091 310.508C131.285 311.256 131.224 312.046 130.92 312.756C130.615 313.466 130.084 314.055 129.409 314.431" stroke="#263238" stroke-width="1.04742" stroke-linecap="round" stroke-linejoin="round"/>
<path d="M119.479 311.451L110.569 314.421" stroke="#263238" stroke-width="1.04742" stroke-linecap="round" stroke-linejoin="round"/>
<path d="M113.129 316.351C113.129 316.351 111.349 312.641 109.569 313.351C107.789 314.061 108.679 319.891 110.459 320.481C111.057 320.615 111.679 320.605 112.272 320.45C112.865 320.295 113.413 320.001 113.869 319.591C113.869 319.591 115.359 322.711 117.139 323.591" fill="white"/>
<path d="M113.129 316.351C113.129 316.351 111.349 312.641 109.569 313.351C107.789 314.061 108.679 319.891 110.459 320.481C111.057 320.615 111.679 320.605 112.272 320.45C112.865 320.295 113.413 320.001 113.869 319.591C113.869 319.591 115.359 322.711 117.139 323.591" stroke="#263238" stroke-width="1.04742" stroke-linecap="round" stroke-linejoin="round"/>
<path d="M101.449 383.021L100.339 397.241L97.0187 418.291C97.0187 418.291 104.779 424.381 112.019 424.381C119.259 424.381 121.249 423.461 121.249 423.461L125.309 401.861L129.369 424.571C129.369 424.571 137.369 423.281 142.669 421.981C146.354 420.955 149.847 419.334 153.009 417.181L142.299 389.301L139.979 374.921C139.979 374.921 127.979 376.031 120.769 376.401C113.559 376.771 103.969 374.921 103.969 374.921L101.449 383.021Z" fill="#EE683E" stroke="#263238" stroke-width="1.04742" stroke-linecap="round" stroke-linejoin="round"/>
<path d="M109.059 326.201C109.059 326.201 126.059 332.131 131.309 337.891C134.209 341.091 137.459 362.991 138.629 368.341C139.799 373.691 141.839 384.341 141.839 384.341C141.839 384.341 131.469 389.021 123.449 389.191C115.429 389.361 100.039 385.681 100.039 385.681C100.039 385.681 101.869 361.951 101.869 350.921C101.869 339.891 102.039 332.691 103.869 329.181C103.879 329.211 106.889 325.861 109.059 326.201Z" fill="#263238" stroke="#263238" stroke-width="1.04742" stroke-linecap="round" stroke-linejoin="round"/>
<path d="M104.589 387.401C104.589 387.401 105.509 402.911 104.589 408.641C103.943 412.338 102.827 415.937 101.269 419.351" stroke="#263238" stroke-width="1.04742" stroke-linecap="round" stroke-linejoin="round"/>
<path d="M104.959 394.791C106.347 394.314 107.588 393.484 108.559 392.383C109.53 391.282 110.199 389.948 110.499 388.511" stroke="#263238" stroke-width="1.04742" stroke-linecap="round" stroke-linejoin="round"/>
<path d="M97.9387 415.291C97.9387 415.291 107.179 423.231 121.579 420.291" stroke="#263238" stroke-width="1.04742" stroke-linecap="round" stroke-linejoin="round"/>
<path d="M128.969 419.901C128.969 419.901 144.109 418.241 150.759 413.811" stroke="#263238" stroke-width="1.04742" stroke-linecap="round" stroke-linejoin="round"/>
<path d="M196.689 319.021C196.689 319.021 195.229 320.101 190.139 323.821C185.049 327.541 189.059 333.161 189.059 333.161C189.059 333.161 185.419 333.731 180.559 338.841C175.699 343.951 182.729 352.721 189.299 354.091C195.869 355.461 203.549 347.331 205.849 339.791C208.149 332.251 205.109 320.881 203.579 318.531C202.049 316.181 196.689 319.021 196.689 319.021Z" fill="#263238" stroke="#263238" stroke-width="1.04742" stroke-linecap="round" stroke-linejoin="round"/>
<path d="M215.969 318.021C215.969 318.021 218.499 314.111 216.209 308.441C213.919 302.771 207.079 300.181 200.419 304.291C198.199 305.612 196.477 307.628 195.521 310.028C194.564 312.427 194.426 315.075 195.129 317.561C195.779 320.181 199.059 324.211 199.749 324.271C200.439 324.331 206.429 326.511 210.519 324.601C214.609 322.691 215.969 318.021 215.969 318.021Z" fill="#263238" stroke="#263238" stroke-width="1.04742" stroke-linecap="round" stroke-linejoin="round"/>
<path d="M186.539 450.021C186.539 450.021 191.289 457.411 199.539 458.671C207.789 459.931 200.369 452.531 198.979 451.411C197.589 450.291 187.659 447.871 186.539 450.021Z" fill="#737373" stroke="#263238" stroke-width="1.04742" stroke-linecap="round" stroke-linejoin="round"/>
<path d="M230.489 451.921C230.489 451.921 239.559 454.151 238.859 456.111C238.159 458.071 230.769 457.921 226.449 456.801C222.129 455.681 218.069 454.011 218.629 452.201C219.189 450.391 230.489 451.921 230.489 451.921Z" fill="#737373" stroke="#263238" stroke-width="1.04742" stroke-linecap="round" stroke-linejoin="round"/>
<path d="M204.699 332.721C204.699 332.721 192.559 334.501 190.339 338.791C188.119 343.081 191.249 366.451 191.249 366.451C191.249 366.451 186.069 377.881 185.999 385.241C185.929 392.601 189.209 405.551 188.949 408.781C188.689 412.011 185.369 448.781 185.369 449.781C185.369 450.781 192.369 453.021 202.459 454.221C212.549 455.421 231.849 451.831 231.849 451.831C231.849 451.831 231.469 430.131 232.479 417.191C233.489 404.251 232.049 392.621 229.479 387.791C226.909 382.961 214.939 365.571 214.939 365.571C214.939 365.571 220.739 355.051 221.099 350.451C221.459 345.851 219.589 343.451 215.209 338.161C213.907 336.6 212.307 335.315 210.502 334.381C208.697 333.447 206.724 332.883 204.699 332.721Z" fill="#EE683E" stroke="#263238" stroke-width="1.04742" stroke-linecap="round" stroke-linejoin="round"/>
<path d="M214.969 365.581C214.969 365.581 220.769 355.061 221.129 350.461C221.489 345.861 219.619 343.461 215.239 338.171C215.029 337.911 214.809 337.681 214.589 337.441L214.429 337.591C209.929 344.941 195.049 357.501 190.619 361.161C190.959 364.291 191.249 366.451 191.249 366.451C191.249 366.451 186.069 377.881 185.999 385.241C186.082 388.594 186.416 391.937 186.999 395.241C197.509 389.241 211.569 378.011 219.179 371.751C216.799 368.231 214.969 365.581 214.969 365.581Z" fill="#737373" stroke="#263238" stroke-width="1.04742" stroke-linecap="round" stroke-linejoin="round"/>
<path d="M202.459 324.141C202.794 326.885 202.978 329.646 203.009 332.411C202.849 334.461 203.509 339.141 207.009 340.611C210.509 342.081 212.709 340.031 212.699 337.971C212.572 336.269 212.236 334.59 211.699 332.971L211.799 327.321C211.799 327.321 205.759 323.541 202.459 324.141Z" fill="white" stroke="#263238" stroke-width="1.04742" stroke-linecap="round" stroke-linejoin="round"/>
<path d="M199.319 320.471C199.319 320.471 196.749 318.211 196.669 321.471C196.589 324.731 199.589 325.811 200.249 326.031C200.806 326.106 201.371 325.967 201.829 325.641C201.829 325.641 206.489 329.641 210.229 329.901C213.969 330.161 215.489 328.431 216.369 321.641C217.249 314.851 210.239 307.961 210.239 307.961C210.239 307.961 204.239 319.021 199.319 320.471Z" fill="white" stroke="#263238" stroke-width="1.04742" stroke-linecap="round" stroke-linejoin="round"/>
<path d="M142.129 384.201C142.095 383.042 142.285 381.887 142.689 380.801C143.309 379.441 146.689 378.661 147.439 378.401C148.189 378.141 148.569 378.401 148.349 379.111C148.174 379.492 147.923 379.835 147.612 380.117C147.301 380.398 146.936 380.614 146.539 380.751C146.022 380.875 145.556 381.158 145.209 381.561C145.019 381.881 145.139 383.931 144.209 384.801C143.279 385.671 141.819 385.431 142.129 384.201Z" fill="white" stroke="#263238" stroke-width="1.04742" stroke-linecap="round" stroke-linejoin="round"/>
<path d="M218.769 354.131C218.769 354.131 206.769 352.561 201.479 360.941C196.189 369.321 186.299 398.641 167.969 403.361C149.639 408.081 144.399 370.361 133.399 371.411C122.919 372.411 115.599 371.411 109.309 382.931C105.949 389.101 89.1487 456.471 81.2087 457.161C55.9187 459.371 39.6387 457.931 39.6387 457.931" stroke="#263238" stroke-width="3.14226" stroke-linecap="round" stroke-linejoin="round"/>
<path d="M109.839 326.681C109.839 326.681 107.069 325.571 103.369 327.781C99.6687 329.991 89.7087 354.191 90.4487 356.781C91.1887 359.371 101.709 364.171 107.619 365.831C113.529 367.491 124.239 369.531 124.239 369.531C124.239 369.531 127.559 374.701 128.669 374.881C130.283 374.859 131.891 374.675 133.469 374.331C133.469 374.331 135.469 375.991 136.239 374.141C137.009 372.291 135.499 369.901 133.839 368.051C132.179 366.201 125.159 365.281 125.159 365.281L106.129 352.161L114.129 337.391" fill="#263238"/>
<path d="M109.839 326.681C109.839 326.681 107.069 325.571 103.369 327.781C99.6687 329.991 89.7087 354.191 90.4487 356.781C91.1887 359.371 101.709 364.171 107.619 365.831C113.529 367.491 124.239 369.531 124.239 369.531C124.239 369.531 127.559 374.701 128.669 374.881C130.283 374.859 131.891 374.675 133.469 374.331C133.469 374.331 135.469 375.991 136.239 374.141C137.009 372.291 135.499 369.901 133.839 368.051C132.179 366.201 125.159 365.281 125.159 365.281L106.129 352.161L114.129 337.391" stroke="#263238" stroke-width="1.04742" stroke-linecap="round" stroke-linejoin="round"/>
<path d="M128.669 374.871C130.283 374.849 131.891 374.665 133.469 374.321C133.469 374.321 135.469 375.981 136.239 374.131C137.009 372.281 135.499 369.891 133.839 368.041C132.179 366.191 125.159 365.271 125.159 365.271L106.129 352.161L108.969 346.871C101.859 342.441 97.1387 342.771 94.5887 343.661C92.0387 349.781 90.0987 355.581 90.4387 356.771C91.1787 359.361 101.699 364.161 107.609 365.821C113.519 367.481 124.229 369.521 124.229 369.521C124.229 369.521 127.559 374.691 128.669 374.871Z" fill="white" stroke="#263238" stroke-width="1.04742" stroke-linecap="round" stroke-linejoin="round"/>
<path d="M247.619 354.541C246.809 345.811 242.619 338.641 237.619 335.791L237.459 334.011L224.399 335.221C217.049 335.901 211.979 345.991 213.069 357.751C214.159 369.511 220.999 378.481 228.349 377.751L241.409 376.541L241.239 374.761C245.639 371.081 248.429 363.271 247.619 354.541Z" fill="#263238" stroke="#263238" stroke-width="1.04742" stroke-linecap="round" stroke-linejoin="round"/>
<path d="M253.529 354.021C252.679 344.851 248.529 337.301 243.239 334.301L243.059 332.431L237.469 332.951C229.749 333.671 224.419 344.261 225.559 356.621C226.699 368.981 233.899 378.411 241.619 377.691L247.209 377.171L247.039 375.301C251.659 371.361 254.379 363.161 253.529 354.021Z" fill="white" stroke="#263238" stroke-width="1.04742" stroke-linecap="round" stroke-linejoin="round"/>
<path d="M259.129 353.471C260.279 365.831 254.949 376.421 247.219 377.141C239.489 377.861 232.299 368.421 231.129 356.071C229.959 343.721 235.309 333.071 243.029 332.401C250.749 331.731 257.969 341.121 259.129 353.471Z" fill="white" stroke="#263238" stroke-width="1.04742" stroke-linecap="round" stroke-linejoin="round"/>
<path d="M265.129 346.251L243.439 348.251C243.135 348.28 242.828 348.248 242.536 348.158C242.244 348.068 241.973 347.921 241.737 347.726C241.502 347.531 241.308 347.292 241.166 347.021C241.024 346.751 240.936 346.455 240.909 346.151C240.88 345.847 240.911 345.54 241.001 345.248C241.091 344.956 241.238 344.685 241.433 344.45C241.628 344.214 241.868 344.02 242.138 343.878C242.409 343.736 242.704 343.648 243.009 343.621L264.699 341.621C265.003 341.592 265.31 341.623 265.602 341.713C265.894 341.803 266.165 341.95 266.4 342.145C266.635 342.34 266.829 342.58 266.971 342.85C267.114 343.121 267.201 343.417 267.229 343.721C267.258 344.025 267.226 344.332 267.136 344.624C267.046 344.916 266.899 345.187 266.704 345.422C266.509 345.657 266.27 345.851 265.999 345.994C265.729 346.136 265.433 346.223 265.129 346.251Z" fill="#737373" stroke="#263238" stroke-width="1.04742" stroke-linecap="round" stroke-linejoin="round"/>
<path d="M266.739 363.441L245.049 365.441C244.745 365.47 244.438 365.438 244.146 365.348C243.854 365.258 243.583 365.111 243.347 364.916C243.112 364.721 242.918 364.482 242.776 364.211C242.634 363.941 242.546 363.645 242.519 363.341C242.49 363.037 242.521 362.73 242.611 362.438C242.701 362.146 242.848 361.875 243.043 361.64C243.238 361.404 243.478 361.21 243.748 361.068C244.019 360.926 244.314 360.838 244.619 360.811L266.309 358.811C266.922 358.758 267.531 358.948 268.005 359.342C268.478 359.735 268.778 360.298 268.839 360.911C268.868 361.215 268.836 361.522 268.746 361.814C268.656 362.106 268.509 362.377 268.314 362.612C268.119 362.847 267.88 363.041 267.609 363.184C267.339 363.326 267.043 363.413 266.739 363.441Z" fill="#737373" stroke="#263238" stroke-width="1.04742" stroke-linecap="round" stroke-linejoin="round"/>
<path d="M197.199 334.351C197.199 334.351 191.979 335.351 189.509 338.351C187.039 341.351 181.969 364.501 183.139 367.161C184.309 369.821 203.059 373.161 208.849 373.641C213.505 373.825 218.168 373.618 222.789 373.021C222.789 373.021 227.789 372.891 229.159 372.661C230.529 372.431 233.049 371.081 233.089 370.571C233.129 370.061 232.879 368.841 231.009 368.691C229.139 368.541 225.129 367.201 224.619 367.161C225.82 366.845 227.039 366.598 228.269 366.421C228.269 366.421 228.529 365.421 226.469 365.421C224.409 365.421 222.539 365.281 221.759 366.421C221.201 367.309 220.726 368.246 220.339 369.221C220.339 369.221 208.789 370.031 202.519 366.971C196.249 363.911 194.269 362.891 194.269 362.891L198.769 344.891" fill="#EE683E"/>
<path d="M197.199 334.351C197.199 334.351 191.979 335.351 189.509 338.351C187.039 341.351 181.969 364.501 183.139 367.161C184.309 369.821 203.059 373.161 208.849 373.641C213.505 373.825 218.168 373.618 222.789 373.021C222.789 373.021 227.789 372.891 229.159 372.661C230.529 372.431 233.049 371.081 233.089 370.571C233.129 370.061 232.879 368.841 231.009 368.691C229.139 368.541 225.129 367.201 224.619 367.161C225.82 366.845 227.039 366.598 228.269 366.421C228.269 366.421 228.529 365.421 226.469 365.421C224.409 365.421 222.539 365.281 221.759 366.421C221.201 367.309 220.726 368.246 220.339 369.221C220.339 369.221 208.789 370.031 202.519 366.971C196.249 363.911 194.269 362.891 194.269 362.891L198.769 344.891" stroke="#263238" stroke-width="1.04742" stroke-linecap="round" stroke-linejoin="round"/>
<path d="M229.129 372.691C230.519 372.461 233.019 371.111 233.059 370.601C233.099 370.091 232.849 368.871 230.979 368.721C229.109 368.571 225.099 367.231 224.589 367.191C225.79 366.875 227.009 366.628 228.239 366.451C228.239 366.451 228.499 365.451 226.439 365.451C224.379 365.451 222.509 365.311 221.729 366.451C221.171 367.339 220.696 368.276 220.309 369.251C220.309 369.251 208.759 370.061 202.489 367.001C196.219 363.941 194.239 362.921 194.239 362.921L196.979 351.921C193.412 350.453 189.648 349.52 185.809 349.151C183.939 356.691 182.409 365.571 183.109 367.151C184.269 369.811 203.029 373.151 208.819 373.631C213.475 373.815 218.138 373.608 222.759 373.011C222.759 373.011 227.769 372.921 229.129 372.691Z" fill="white" stroke="#263238" stroke-width="1.04742" stroke-linecap="round" stroke-linejoin="round"/>
<path d="M144.669 382.261C144.669 382.261 140.809 385.151 141.399 387.061C141.989 388.971 145.209 385.061 146.009 383.911C146.809 382.761 146.179 381.021 144.669 382.261Z" fill="white" stroke="#263238" stroke-width="1.04742" stroke-linecap="round" stroke-linejoin="round"/>
<path d="M145.429 384.851C145.429 384.851 141.579 387.741 142.159 389.651C142.739 391.561 145.979 387.651 146.769 386.501C147.559 385.351 146.939 383.591 145.429 384.851Z" fill="white" stroke="#263238" stroke-width="1.04742" stroke-linecap="round" stroke-linejoin="round"/>
<path d="M147.259 386.531C147.259 386.531 143.409 389.421 143.999 391.331C144.589 393.241 147.809 389.331 148.609 388.181C149.409 387.031 148.779 385.271 147.259 386.531Z" fill="white" stroke="#263238" stroke-width="1.04742" stroke-linecap="round" stroke-linejoin="round"/>
<path d="M148.769 387.891C148.769 387.891 145.439 390.031 145.999 391.611C146.559 393.191 149.309 390.201 149.999 389.281C150.689 388.361 150.129 386.881 148.769 387.891Z" fill="white" stroke="#263238" stroke-width="1.04742" stroke-linecap="round" stroke-linejoin="round"/>
</svg>
