<svg width="144" height="38" viewBox="0 0 144 38" fill="none" xmlns="http://www.w3.org/2000/svg">
<path fill-rule="evenodd" clip-rule="evenodd" d="M10.75 32C10.7285 26.0702 5.92384 21.2699 0 21.2699C5.93706 21.2699 10.75 16.448 10.75 10.5C10.7714 16.4298 15.5762 21.2301 21.5 21.2301C15.5628 21.2301 10.75 26.052 10.75 32Z" fill="#EE683E"/>
<path d="M54.608 8.344V8.984C53.9253 9.00533 53.4133 9.09067 53.072 9.24C52.7307 9.368 52.496 9.624 52.368 10.008C52.2613 10.3707 52.208 10.9467 52.208 11.736V27.608C52.208 28.376 52.2613 28.952 52.368 29.336C52.496 29.72 52.7307 29.976 53.072 30.104C53.4133 30.232 53.9253 30.3173 54.608 30.36V31C54.0107 30.9573 53.2533 30.936 52.336 30.936C51.44 30.9147 50.5227 30.904 49.584 30.904C48.56 30.904 47.6 30.9147 46.704 30.936C45.808 30.936 45.0827 30.9573 44.528 31V30.36C45.2533 30.3173 45.7973 30.232 46.16 30.104C46.544 29.976 46.8 29.72 46.928 29.336C47.056 28.952 47.12 28.376 47.12 27.608V10.296H47.344L39.408 31.032H38.896L30.256 10.424V25.752C30.256 26.9253 30.32 27.832 30.448 28.472C30.576 29.0907 30.8533 29.5387 31.28 29.816C31.728 30.072 32.4213 30.2533 33.36 30.36V31C32.9547 30.9573 32.4213 30.936 31.76 30.936C31.0987 30.9147 30.48 30.904 29.904 30.904C29.4133 30.904 28.912 30.9147 28.4 30.936C27.888 30.936 27.4613 30.9573 27.12 31V30.36C27.8027 30.2533 28.3147 30.072 28.656 29.816C28.9973 29.56 29.2213 29.144 29.328 28.568C29.456 27.9707 29.52 27.16 29.52 26.136V11.736C29.52 10.9467 29.456 10.3707 29.328 10.008C29.2213 9.624 28.9867 9.368 28.624 9.24C28.2827 9.09067 27.7813 9.00533 27.12 8.984V8.344C27.4613 8.36533 27.888 8.38667 28.4 8.408C28.912 8.42933 29.4133 8.44 29.904 8.44C30.8213 8.44 31.7173 8.42933 32.592 8.408C33.488 8.38667 34.2773 8.36533 34.96 8.344L41.68 24.568L40.88 25.304L47.312 8.44C47.6747 8.44 48.048 8.44 48.432 8.44C48.816 8.44 49.2 8.44 49.584 8.44C50.5227 8.44 51.44 8.42933 52.336 8.408C53.2533 8.38667 54.0107 8.36533 54.608 8.344ZM72.2122 14.456V15.096C71.8069 15.2027 71.4229 15.4587 71.0603 15.864C70.6976 16.248 70.3456 16.9093 70.0043 17.848L65.4922 30.52L64.3082 32.76L57.3322 16.92C56.9696 16.088 56.6069 15.5867 56.2442 15.416C55.9029 15.224 55.6042 15.128 55.3482 15.128V14.456C56.0522 14.52 56.7776 14.5733 57.5242 14.616C58.2922 14.6373 59.0282 14.648 59.7322 14.648C60.6069 14.648 61.4069 14.6267 62.1322 14.584C62.8576 14.5413 63.5402 14.4987 64.1803 14.456V15.128C63.7536 15.128 63.3482 15.16 62.9642 15.224C62.6016 15.2667 62.3456 15.416 62.1962 15.672C62.0682 15.9067 62.1322 16.3227 62.3882 16.92L66.4202 26.648L66.1322 26.84L68.5002 20.216C68.9056 19.064 69.0762 18.1253 69.0122 17.4C68.9483 16.6533 68.7136 16.0987 68.3083 15.736C67.9029 15.352 67.3482 15.1387 66.6442 15.096V14.456C66.9856 14.4773 67.3376 14.4987 67.7002 14.52C68.0629 14.52 68.4256 14.5307 68.7882 14.552C69.1509 14.552 69.4709 14.552 69.7483 14.552C70.1749 14.552 70.6229 14.5413 71.0922 14.52C71.5616 14.4987 71.9349 14.4773 72.2122 14.456ZM65.4922 30.52L64.2762 33.944C64.0629 34.4773 63.8389 34.9253 63.6042 35.288C63.3909 35.672 63.1456 35.9813 62.8682 36.216C62.5696 36.472 62.1856 36.664 61.7162 36.792C61.2469 36.9413 60.7029 37.016 60.0842 37.016C59.5722 37.016 59.0389 36.9307 58.4842 36.76C57.9509 36.5893 57.5029 36.312 57.1402 35.928C56.7776 35.544 56.5962 35.0533 56.5962 34.456C56.5962 33.7947 56.8309 33.2613 57.3002 32.856C57.7696 32.472 58.3882 32.28 59.1562 32.28C59.8602 32.28 60.4362 32.4507 60.8842 32.792C61.3322 33.1333 61.5562 33.6347 61.5562 34.296C61.5562 34.7227 61.4176 35.128 61.1402 35.512C60.8842 35.896 60.4896 36.184 59.9562 36.376C60.0629 36.3973 60.1909 36.408 60.3402 36.408C60.4896 36.408 60.6069 36.408 60.6922 36.408C61.3322 36.408 61.8976 36.2053 62.3882 35.8C62.8789 35.3947 63.2842 34.7547 63.6042 33.88L64.7242 30.584L65.4922 30.52ZM90.6442 8.344C90.5589 9.304 90.4949 10.232 90.4522 11.128C90.4309 12.024 90.4202 12.7173 90.4202 13.208C90.4202 13.6773 90.4309 14.1253 90.4522 14.552C90.4736 14.9787 90.4949 15.3413 90.5162 15.64H89.7803C89.5029 13.976 89.1189 12.6747 88.6283 11.736C88.1376 10.776 87.5296 10.0933 86.8042 9.688C86.1002 9.28267 85.2576 9.08 84.2762 9.08H83.2202C82.6016 9.08 82.1322 9.13333 81.8122 9.24C81.4922 9.34667 81.2789 9.56 81.1722 9.88C81.0656 10.2 81.0122 10.6907 81.0122 11.352V27.416C81.0122 28.248 81.0976 28.8667 81.2682 29.272C81.4389 29.6773 81.7696 29.944 82.2602 30.072C82.7509 30.2 83.4762 30.2747 84.4362 30.296V31C83.7749 30.9787 82.9216 30.9573 81.8762 30.936C80.8309 30.9147 79.7322 30.904 78.5802 30.904C77.6629 30.904 76.7669 30.9147 75.8922 30.936C75.0176 30.9573 74.2282 30.9787 73.5242 31V30.36C74.2069 30.3173 74.7189 30.232 75.0602 30.104C75.4016 29.976 75.6256 29.72 75.7322 29.336C75.8602 28.952 75.9242 28.376 75.9242 27.608V11.736C75.9242 10.9467 75.8602 10.3707 75.7322 10.008C75.6256 9.624 75.3909 9.368 75.0282 9.24C74.6869 9.09067 74.1856 9.00533 73.5242 8.984V8.344C74.3989 8.36533 75.3269 8.38667 76.3082 8.408C77.2896 8.408 78.2602 8.41867 79.2202 8.44C80.1802 8.44 81.0762 8.44 81.9082 8.44C82.7402 8.44 83.4229 8.44 83.9562 8.44C84.9376 8.44 86.0469 8.44 87.2842 8.44C88.5429 8.41867 89.6629 8.38667 90.6442 8.344ZM85.8762 19.416C85.8762 19.416 85.8762 19.5227 85.8762 19.736C85.8762 19.9493 85.8762 20.056 85.8762 20.056H80.0522C80.0522 20.056 80.0522 19.9493 80.0522 19.736C80.0522 19.5227 80.0522 19.416 80.0522 19.416H85.8762ZM86.6762 15.192C86.5909 16.408 86.5482 17.336 86.5482 17.976C86.5696 18.616 86.5802 19.2027 86.5802 19.736C86.5802 20.2693 86.5909 20.856 86.6122 21.496C86.6336 22.136 86.6869 23.064 86.7722 24.28H86.0362C85.9082 23.5333 85.7056 22.84 85.4282 22.2C85.1509 21.56 84.7456 21.048 84.2122 20.664C83.6789 20.2587 82.9856 20.056 82.1322 20.056V19.416C82.7722 19.416 83.3056 19.288 83.7322 19.032C84.1802 18.7547 84.5536 18.4027 84.8522 17.976C85.1509 17.528 85.3856 17.0587 85.5562 16.568C85.7269 16.0773 85.8549 15.6187 85.9402 15.192H86.6762ZM100.225 14.008C102.103 14.008 103.575 14.5627 104.641 15.672C105.708 16.7813 106.241 18.5947 106.241 21.112H95.7132L95.6492 20.504H102.209C102.231 19.4587 102.167 18.4987 102.017 17.624C101.868 16.728 101.633 16.0133 101.313 15.48C100.993 14.9467 100.567 14.68 100.033 14.68C99.2866 14.68 98.6466 15.1493 98.1132 16.088C97.6012 17.0267 97.2919 18.584 97.1852 20.76L97.2812 20.952C97.2599 21.208 97.2386 21.4747 97.2172 21.752C97.2172 22.0293 97.2172 22.3173 97.2172 22.616C97.2172 24.088 97.4199 25.2827 97.8252 26.2C98.2519 27.1173 98.7852 27.7893 99.4252 28.216C100.065 28.6213 100.716 28.824 101.377 28.824C101.825 28.824 102.284 28.76 102.753 28.632C103.244 28.4827 103.735 28.2267 104.225 27.864C104.716 27.48 105.175 26.9467 105.601 26.264L106.177 26.456C105.921 27.2667 105.516 28.056 104.961 28.824C104.407 29.592 103.703 30.2213 102.849 30.712C101.996 31.2027 100.972 31.448 99.7772 31.448C98.3266 31.448 97.0466 31.1387 95.9372 30.52C94.8279 29.9013 93.9532 28.9627 93.3132 27.704C92.6946 26.4453 92.3852 24.8453 92.3852 22.904C92.3852 20.92 92.7159 19.2667 93.3772 17.944C94.0599 16.6213 94.9879 15.64 96.1612 15C97.3559 14.3387 98.7106 14.008 100.225 14.008ZM116.99 14.008C118.868 14.008 120.34 14.5627 121.406 15.672C122.473 16.7813 123.006 18.5947 123.006 21.112H112.478L112.414 20.504H118.974C118.996 19.4587 118.932 18.4987 118.782 17.624C118.633 16.728 118.398 16.0133 118.078 15.48C117.758 14.9467 117.332 14.68 116.798 14.68C116.052 14.68 115.412 15.1493 114.878 16.088C114.366 17.0267 114.057 18.584 113.95 20.76L114.046 20.952C114.025 21.208 114.004 21.4747 113.982 21.752C113.982 22.0293 113.982 22.3173 113.982 22.616C113.982 24.088 114.185 25.2827 114.59 26.2C115.017 27.1173 115.55 27.7893 116.19 28.216C116.83 28.6213 117.481 28.824 118.142 28.824C118.59 28.824 119.049 28.76 119.518 28.632C120.009 28.4827 120.5 28.2267 120.99 27.864C121.481 27.48 121.94 26.9467 122.366 26.264L122.942 26.456C122.686 27.2667 122.281 28.056 121.726 28.824C121.172 29.592 120.468 30.2213 119.614 30.712C118.761 31.2027 117.737 31.448 116.542 31.448C115.092 31.448 113.812 31.1387 112.702 30.52C111.593 29.9013 110.718 28.9627 110.078 27.704C109.46 26.4453 109.15 24.8453 109.15 22.904C109.15 20.92 109.481 19.2667 110.142 17.944C110.825 16.6213 111.753 15.64 112.926 15C114.121 14.3387 115.476 14.008 116.99 14.008ZM141.243 5.944V27.48C141.243 28.44 141.393 29.1547 141.691 29.624C141.99 30.072 142.523 30.296 143.291 30.296V30.968C142.63 30.904 141.969 30.872 141.307 30.872C140.411 30.872 139.569 30.904 138.779 30.968C138.011 31.032 137.297 31.1493 136.635 31.32V9.784C136.635 8.824 136.486 8.12 136.187 7.672C135.91 7.20267 135.377 6.968 134.587 6.968V6.296C135.27 6.36 135.931 6.392 136.571 6.392C137.446 6.392 138.278 6.36 139.067 6.296C139.857 6.21067 140.582 6.09333 141.243 5.944ZM133.083 14.008C134.022 14.008 134.843 14.168 135.547 14.488C136.273 14.7867 136.838 15.2987 137.243 16.024L136.859 16.376C136.582 15.864 136.209 15.5013 135.739 15.288C135.291 15.0533 134.811 14.936 134.299 14.936C133.211 14.936 132.347 15.576 131.707 16.856C131.067 18.1147 130.758 20.0667 130.779 22.712C130.779 24.5253 130.897 25.976 131.131 27.064C131.387 28.1307 131.739 28.8987 132.187 29.368C132.657 29.8373 133.19 30.072 133.787 30.072C134.513 30.072 135.163 29.784 135.739 29.208C136.315 28.632 136.625 27.8533 136.667 26.872L136.827 27.992C136.507 29.1227 135.985 29.9867 135.259 30.584C134.555 31.16 133.627 31.448 132.475 31.448C131.217 31.448 130.086 31.1387 129.083 30.52C128.102 29.9013 127.334 28.952 126.779 27.672C126.225 26.3707 125.947 24.696 125.947 22.648C125.947 20.7067 126.257 19.1067 126.875 17.848C127.494 16.568 128.337 15.608 129.403 14.968C130.491 14.328 131.718 14.008 133.083 14.008Z" fill="#212121"/>
</svg>
